<svg width="328" height="204" viewBox="0 0 328 204" fill="none" xmlns="http://www.w3.org/2000/svg">
<path d="M196.374 187.507C203.472 186.529 211.547 187.995 217.704 181.166C215.823 174.96 213.929 168.741 215.078 161.228C221.919 119.324 229.885 70.9443 194.688 40.8416C178.048 27.5129 158.782 21.7587 137.94 19.2786C124.526 17.9836 111.991 23.6157 99.3341 26.9875C85.4067 21.0501 70.0133 24.4342 55.5973 29.0644C53.1783 30.2372 49.5254 31.4101 47.0942 32.5951C23.6498 44.5434 8.57406 69.9424 7.3035 96.4411C6.03293 120.447 12.9478 141.302 6.68044 165.394C5.66643 171.295 -1.6149 174.789 7.63336 178.649C17.1993 183.267 23.3811 186.212 31.6886 186.468" fill="#FFFBEC"/>
<path d="M196.374 187.507C203.472 186.529 211.547 187.995 217.705 181.166C215.823 174.96 213.929 168.741 215.078 161.228C221.919 119.324 229.885 70.9443 194.688 40.8416C178.048 27.5129 158.782 21.7587 137.94 19.2786C124.526 17.9836 111.991 23.6157 99.3341 26.9875C85.4067 21.0501 70.0133 24.4342 55.5973 29.0644C53.1783 30.2372 49.5254 31.4101 47.0942 32.5951C23.6498 44.5433 8.57406 69.9424 7.3035 96.4411C6.03293 120.447 12.9478 141.302 6.68044 165.394C5.66643 171.295 -1.6149 174.789 7.63336 178.649C17.1993 183.267 23.3811 186.212 31.6886 186.468" stroke="#4D3D3D" stroke-width="5" stroke-miterlimit="10"/>
<path d="M161.714 84.9695C161.714 84.9695 162.594 108.145 186.478 126.263C186.478 126.263 164.329 113.899 161.714 84.9695Z" stroke="#4D3D3D" stroke-width="5" stroke-miterlimit="10" stroke-linecap="round" stroke-linejoin="round"/>
<path d="M119.113 82.1473C119.113 82.1473 116.218 97.272 134.238 118.249C134.25 118.249 116.609 97.9073 119.113 82.1473Z" stroke="#4D3D3D" stroke-width="5" stroke-miterlimit="10" stroke-linecap="round" stroke-linejoin="round"/>
<path d="M68.0464 83.2834C68.0464 83.2834 63.2818 96.8932 69.5369 114.07C69.5369 114.058 63.2451 103.136 68.0464 83.2834Z" stroke="#4D3D3D" stroke-width="5" stroke-miterlimit="10" stroke-linecap="round" stroke-linejoin="round"/>
<path d="M83.0488 135.096C83.0244 138.236 80.4222 140.923 77.2214 141.094C74.0083 141.265 71.4061 138.834 71.4305 135.67C71.4549 132.506 74.0816 129.818 77.2947 129.671C80.4955 129.513 83.0611 131.944 83.0488 135.096Z" fill="#4D3D3D" stroke="#4D3D3D" stroke-width="4" stroke-miterlimit="10" stroke-linecap="round" stroke-linejoin="round"/>
<path d="M155.361 130.502C158.513 130.759 160.712 133.593 160.272 136.843C159.833 140.093 156.925 142.548 153.773 142.316C150.609 142.084 148.385 139.25 148.825 135.975C149.265 132.701 152.197 130.246 155.361 130.502Z" fill="#4D3D3D" stroke="#4D3D3D" stroke-width="4" stroke-miterlimit="10" stroke-linecap="round" stroke-linejoin="round"/>
<path d="M106.322 156.084C111.197 160.556 118.417 161.179 124.232 158.235C125.662 157.514 126.187 155.388 125.332 154.056C124.391 152.603 122.681 152.187 121.154 152.957C120.909 153.079 120.616 153.177 120.372 153.323C120.934 152.969 120.628 153.213 120.408 153.287C120.274 153.336 120.14 153.384 120.005 153.421C119.431 153.604 118.845 153.751 118.258 153.861C118.124 153.885 117.977 153.885 117.843 153.934C118.002 153.885 118.442 153.873 118.026 153.898C117.708 153.922 117.403 153.946 117.085 153.959C116.487 153.971 115.9 153.946 115.314 153.885C114.886 153.849 115.375 153.849 115.509 153.91C115.399 153.861 115.228 153.861 115.106 153.836C114.837 153.788 114.569 153.727 114.3 153.653C114.007 153.58 113.701 153.482 113.408 153.384C113.262 153.336 112.504 153.042 112.907 153.201C113.371 153.384 112.761 153.128 112.712 153.103C112.59 153.042 112.467 152.981 112.345 152.92C112.101 152.798 111.869 152.651 111.637 152.505C111.527 152.432 111.405 152.358 111.295 152.285C111.209 152.224 110.733 151.87 111.111 152.163C111.466 152.444 111.087 152.138 111.026 152.077C110.891 151.967 110.769 151.857 110.647 151.735C109.474 150.66 107.471 150.489 106.322 151.735C105.235 152.945 105.064 154.936 106.322 156.084Z" fill="#4D3D3D"/>
<path d="M73.5807 154.362C75.9508 158.284 74.9123 163.305 71.2595 165.602C67.5944 167.898 62.6709 166.579 60.2642 162.645C57.8452 158.699 58.8959 153.629 62.5976 151.344C66.2871 149.06 71.2106 150.428 73.5807 154.362Z" fill="#FF79D7"/>
<path d="M202.88 125.207C210.331 125.207 208.645 140.594 200.329 140.594C194.955 144.454 190.81 176.072 163.977 182.518" stroke="#4D3D3D" stroke-width="5" stroke-miterlimit="10" stroke-linecap="round" stroke-linejoin="round"/>
<path d="M130.264 187.575C122.079 188.553 107.087 188.584 98.2374 187.575" stroke="#4D3D3D" stroke-width="5" stroke-miterlimit="10" stroke-linecap="round" stroke-linejoin="round"/>
<path d="M30.247 120.24C24.8593 120.191 23.2711 125.823 23.491 128.034C24.3584 137.148 29.5751 137.478 30.2104 140.007C34.8284 158.296 44.1499 167.996 60.985 176.548" stroke="#4D3D3D" stroke-width="5" stroke-miterlimit="10" stroke-linecap="round" stroke-linejoin="round"/>
<path d="M179.551 159.737C178.134 163.684 173.687 165.858 169.618 164.6C165.526 163.329 163.376 159.065 164.817 155.095C166.259 151.124 170.742 148.962 174.811 150.269C178.854 151.552 180.968 155.791 179.551 159.737Z" fill="#FF79D7"/>
<path d="M180.553 179.505C180.553 179.505 157.243 179.578 140.579 183.17C139.467 189.742 139.479 196.193 143.67 201.226C139.467 196.193 139.467 189.742 140.579 183.17C132.173 184.978 125.527 187.678 124.599 191.673C121.716 204.048 159.698 204.048 186.576 194.764C203.264 188.997 190.595 177.782 180.553 179.505Z" fill="#FBC51A"/>
<path d="M140.579 183.17C157.243 179.578 180.553 179.505 180.553 179.505C190.595 177.782 203.264 188.997 186.576 194.764C159.698 204.048 121.716 204.048 124.599 191.673C125.527 187.678 132.173 184.978 140.579 183.17ZM140.579 183.17C139.467 189.742 139.479 196.193 143.67 201.226C139.467 196.193 139.467 189.742 140.579 183.17Z" stroke="#4D3D3D" stroke-width="4" stroke-miterlimit="10"/>
<path d="M85.761 182.742C58.8592 175.619 46.0069 174.422 46.0069 174.422C46.0069 174.422 36.6732 171.392 33.118 180.934C29.5629 190.488 40.1184 193.615 42.4396 194.556C44.4554 195.374 69.8667 198.184 83.4887 199.308C89.8415 195.35 89.9392 187.934 85.761 182.742Z" fill="#FBC51A" stroke="#4D3D3D" stroke-width="4" stroke-miterlimit="10"/>
<path d="M87.9601 183.646C86.9095 183.365 85.8832 183.084 84.857 182.815C89.0352 188.007 88.9375 195.435 82.5847 199.394C84.6249 199.565 86.4208 199.699 87.8257 199.772C99.4197 200.457 116.096 191.269 87.9601 183.646Z" fill="#FBC51A" stroke="#4D3D3D" stroke-width="4" stroke-miterlimit="10"/>
<path d="M83.733 8.32003C83.733 8.32003 92.1627 0.00022827 101.179 16.0045C110.085 31.8133 77.991 16.7131 83.733 8.32003Z" stroke="#FBC51A" stroke-width="5" stroke-miterlimit="10"/>
<path d="M113.237 4.03188C113.237 4.03188 117.977 13.6467 106.909 20.6348C95.7301 27.684 108.253 -2.90737 113.237 4.03188Z" stroke="#FBC51A" stroke-width="5" stroke-miterlimit="10"/>
<path d="M253.313 89.0866L255.793 184.086C255.854 186.627 258.102 188.826 260.741 188.924L302.083 190.439C304.758 190.536 306.933 188.814 307.287 186.322L321.007 87.4617L323.597 82.6604C324.196 81.5365 323.304 80.1438 321.948 80.0582L295.193 78.4822L299.407 57.8477L291.76 57.4446L284.906 77.8714L253.618 78.9343C252.091 78.9831 251.053 80.3392 251.431 81.793L253.313 89.0866Z" stroke="#FBC51A" stroke-width="7" stroke-miterlimit="10"/>
<path d="M254.058 90.3329L256.318 181.85C256.379 184.306 258.419 186.395 260.814 186.481L298.259 187.69C300.678 187.763 302.645 186.09 302.963 183.707L315.363 88.5737L317.696 83.9434C318.234 82.8683 317.44 81.5244 316.206 81.4511L292.016 80.0095L295.828 60.1447L288.901 59.7782L282.695 79.4598L254.339 80.5715C252.958 80.6204 252.018 81.9398 252.36 83.3326L254.058 90.3329Z" fill="#FFFBEC" stroke="#4D3D3D" stroke-width="4" stroke-miterlimit="10"/>
<path d="M280.569 131.48C278.773 129.024 279.176 125.701 281.461 124.052C283.757 122.402 287.068 123.05 288.876 125.505C290.684 127.961 290.281 131.308 287.985 132.958C285.688 134.595 282.365 133.935 280.569 131.48Z" fill="#4D3D3D"/>
<path d="M266.812 122.634C265.029 120.191 265.432 116.88 267.692 115.231C269.964 113.582 273.251 114.217 275.047 116.66C276.843 119.104 276.439 122.427 274.155 124.076C271.883 125.725 268.596 125.078 266.812 122.634Z" fill="#4D3D3D"/>
<path d="M296.72 123.783C294.912 121.315 295.315 117.98 297.624 116.306C299.933 114.632 303.292 115.28 305.113 117.748C306.933 120.216 306.53 123.575 304.209 125.237C301.888 126.91 298.528 126.251 296.72 123.783Z" fill="#4D3D3D"/>
<path d="M292.737 140.618C290.929 138.15 291.332 134.815 293.641 133.166C295.95 131.516 299.297 132.176 301.118 134.644C302.938 137.124 302.535 140.471 300.214 142.121C297.892 143.77 294.545 143.098 292.737 140.618Z" fill="#4D3D3D"/>
<path d="M264.381 143.122C262.61 140.679 263.001 137.368 265.261 135.731C267.533 134.094 270.82 134.754 272.603 137.209C274.387 139.665 273.996 142.988 271.712 144.613C269.439 146.25 266.153 145.578 264.381 143.122Z" fill="#4D3D3D"/>
<path d="M274.228 156.696C272.445 154.228 272.836 150.917 275.12 149.292C277.405 147.655 280.703 148.339 282.511 150.807C284.307 153.275 283.904 156.61 281.619 158.235C279.31 159.848 276.012 159.163 274.228 156.696Z" fill="#4D3D3D"/>
<path d="M292.737 160.202C290.929 157.722 291.332 154.387 293.641 152.749C295.95 151.112 299.297 151.797 301.118 154.277C302.938 156.769 302.535 160.104 300.214 161.741C297.892 163.378 294.545 162.682 292.737 160.202Z" fill="#4D3D3D"/>
<path d="M280.569 170.207C278.773 167.727 279.176 164.404 281.461 162.792C283.757 161.167 287.068 161.851 288.876 164.331C290.684 166.811 290.281 170.146 287.985 171.771C285.688 173.384 282.365 172.687 280.569 170.207Z" fill="#4D3D3D"/>
<path d="M263.172 177.843C261.4 175.375 261.791 172.077 264.051 170.464C266.312 168.851 269.598 169.548 271.382 172.016C273.165 174.483 272.774 177.806 270.49 179.407C268.23 181.019 264.943 180.323 263.172 177.843Z" fill="#4D3D3D"/>
</svg>
