<svg width="50" height="51" viewBox="0 0 50 51" fill="none" xmlns="http://www.w3.org/2000/svg">
<path d="M17.8696 14.1853C16.4697 14.1853 15.3698 15.3102 15.3698 16.6851C15.3698 18.06 16.4947 19.1849 17.8696 19.1849C19.2445 19.1849 20.3693 18.06 20.3693 16.6851C20.3693 15.3102 19.2445 14.1853 17.8696 14.1853Z" fill="#292D32"/>
<path d="M48.6458 8.06517C46.546 3.19059 41.9214 0.46582 35.472 0.46582H14.5238C6.49944 0.46582 0 6.96526 0 14.9896V35.9378C0 42.3872 2.72477 47.0118 7.59935 49.1116C8.07431 49.3116 8.62426 49.1866 8.97423 48.8367L48.3708 9.44005C48.7458 9.06508 48.8708 8.51513 48.6458 8.06517ZM21.3232 26.0636C20.3483 27.0135 19.0734 27.4635 17.7985 27.4635C16.5236 27.4635 15.2487 26.9885 14.2738 26.0636C11.724 23.6638 8.92423 19.8392 9.99914 15.2895C10.9491 11.1649 14.5987 9.31506 17.7985 9.31506C20.9982 9.31506 24.6479 11.1649 25.5978 15.3145C26.6477 19.8392 23.848 23.6638 21.3232 26.0636Z" fill="#292D32"/>
<path d="M43.6685 46.7857C44.2184 47.3357 44.1434 48.2356 43.4685 48.6106C41.2687 49.8355 38.5939 50.4604 35.4692 50.4604H14.521C13.7961 50.4604 13.4961 49.6105 13.9961 49.1105L29.0947 34.0118C29.5947 33.5119 30.3696 33.5119 30.8696 34.0118L43.6685 46.7857Z" fill="#292D32"/>
<path d="M50 14.9868V35.935C50 39.0597 49.375 41.7595 48.1502 43.9343C47.7752 44.6092 46.8753 44.6592 46.3253 44.1343L33.5264 31.3354C33.0265 30.8354 33.0265 30.0605 33.5264 29.5605L48.6251 14.4619C49.1501 13.9619 50 14.2619 50 14.9868Z" fill="#292D32"/>
</svg>
