<svg width="277" height="114" viewBox="0 0 277 114" fill="none" xmlns="http://www.w3.org/2000/svg">
<path d="M49.0144 76.12C47.4144 76.12 46.6144 75.68 46.6144 74.8V35.2C46.6144 34.32 47.4144 33.88 49.0144 33.88H49.4944C51.0944 33.88 51.8944 34.32 51.8944 35.2V52.18H73.6144V35.2C73.6144 34.32 74.4144 33.88 76.0144 33.88H76.4944C78.0944 33.88 78.8944 34.32 78.8944 35.2V74.8C78.8944 75.68 78.0944 76.12 76.4944 76.12H76.0144C74.4144 76.12 73.6144 75.68 73.6144 74.8V56.74H51.8944V74.8C51.8944 75.68 51.0944 76.12 49.4944 76.12H49.0144ZM88.0383 76.12C86.3183 76.12 85.4583 75.78 85.4583 75.1C85.4583 74.98 85.4783 74.86 85.5183 74.74C85.5583 74.58 85.5983 74.42 85.6383 74.26L99.8583 34.84C100.058 34.2 100.858 33.88 102.258 33.88H103.998C105.398 33.88 106.198 34.2 106.398 34.84L120.618 74.32C120.738 74.6 120.798 74.86 120.798 75.1C120.798 75.78 119.938 76.12 118.218 76.12H117.738C117.138 76.12 116.618 76.06 116.178 75.94C115.738 75.78 115.458 75.52 115.338 75.16L111.798 65.32H94.1583L90.7383 75.16C90.6183 75.52 90.3383 75.78 89.8983 75.94C89.4583 76.06 88.9383 76.12 88.3383 76.12H88.0383ZM95.8383 60.76H110.178L103.878 42.88C103.718 42.32 103.578 41.74 103.458 41.14C103.338 40.54 103.238 39.96 103.158 39.4H103.038C102.918 39.96 102.778 40.54 102.618 41.14C102.498 41.74 102.338 42.32 102.138 42.88L95.8383 60.76ZM135.047 76.12C133.447 76.12 132.647 75.68 132.647 74.8V54.46L120.107 35.98C119.787 35.54 119.627 35.18 119.627 34.9C119.627 34.58 119.827 34.34 120.227 34.18C120.667 33.98 121.387 33.88 122.387 33.88H123.047C123.687 33.88 124.207 33.94 124.607 34.06C125.047 34.18 125.387 34.42 125.627 34.78L135.467 49.54L145.547 34.72C145.747 34.4 146.087 34.18 146.567 34.06C147.087 33.94 147.647 33.88 148.247 33.88H148.667C150.227 33.92 151.007 34.26 151.007 34.9C151.007 35.06 150.947 35.24 150.827 35.44C150.747 35.6 150.647 35.78 150.527 35.98L137.927 54.64V74.8C137.927 75.68 137.127 76.12 135.527 76.12H135.047ZM194.719 46.6445L190.207 47.2305L189.914 39.3203L185.051 39.4961L184.758 70.3164L188.859 70.1992L188.566 75.4727L176.496 75.7656L176.32 70.3164H179.777L179.719 39.7891L174.445 40.1406L174.738 47.5234H169.875L170.168 34.8086L194.133 33.9297L194.719 46.6445ZM203.395 76C202.195 76 201.595 75.4 201.595 74.2V35.8C201.595 34.6 202.195 34 203.395 34H224.335C225.135 34 225.535 34.6 225.535 35.8V36.76C225.535 37.96 225.135 38.56 224.335 38.56H206.875V52.24H222.535C223.335 52.24 223.735 52.84 223.735 54.04V55C223.735 56.2 223.335 56.8 222.535 56.8H206.875V71.44H224.395C225.195 71.44 225.595 72.04 225.595 73.24V74.2C225.595 75.4 225.195 76 224.395 76H203.395ZM231.769 76.12C230.049 76.12 229.189 75.78 229.189 75.1C229.189 74.98 229.209 74.86 229.249 74.74C229.289 74.58 229.329 74.42 229.369 74.26L243.589 34.84C243.789 34.2 244.589 33.88 245.989 33.88H247.729C249.129 33.88 249.929 34.2 250.129 34.84L264.349 74.32C264.469 74.6 264.529 74.86 264.529 75.1C264.529 75.78 263.669 76.12 261.949 76.12H261.469C260.869 76.12 260.349 76.06 259.909 75.94C259.469 75.78 259.189 75.52 259.069 75.16L255.529 65.32H237.889L234.469 75.16C234.349 75.52 234.069 75.78 233.629 75.94C233.189 76.06 232.669 76.12 232.069 76.12H231.769ZM239.569 60.76H253.909L247.609 42.88C247.449 42.32 247.309 41.74 247.189 41.14C247.069 40.54 246.969 39.96 246.889 39.4H246.769C246.649 39.96 246.509 40.54 246.349 41.14C246.229 41.74 246.069 42.32 245.869 42.88L239.569 60.76Z" fill="black"/>
<path d="M21 30C21 29.1716 20.3284 28.5 19.5 28.5C18.6716 28.5 18 29.1716 18 30H21ZM29 80.5C29.8284 80.5 30.5 79.8284 30.5 79C30.5 78.1716 29.8284 77.5 29 77.5V80.5ZM29 42.3262L30.1664 41.3831C29.7568 40.8765 29.067 40.6922 28.4593 40.9271L29 42.3262ZM29 51.37L28.8653 49.8761C28.7966 49.8823 28.7284 49.8932 28.6612 49.9088L29 51.37ZM33.5 38.5L34.998 38.5769C35.0364 37.8294 34.5179 37.1681 33.7829 37.0269C33.0478 36.8858 32.3212 37.3081 32.08 38.0166L33.5 38.5ZM18.3143 47.4667C19.1243 47.2931 19.6403 46.4957 19.4667 45.6857C19.2931 44.8757 18.4957 44.3597 17.6857 44.5333L18.3143 47.4667ZM11 40H9.5H11ZM20.3787 29.5909C20.7051 28.8294 20.3523 27.9476 19.5909 27.6213C18.8294 27.2949 17.9476 27.6477 17.6213 28.4091L20.3787 29.5909ZM18 30V71H21V30H18ZM27.5 80.5H29V77.5H27.5V80.5ZM18 71C18 76.2467 22.2533 80.5 27.5 80.5V77.5C23.9101 77.5 21 74.5899 21 71H18ZM28.4593 40.9271C27.5271 41.2873 26.2074 42.0473 25.0992 43.2158C23.9757 44.4003 23 46.0852 23 48.2395H26C26 47.0545 26.5243 46.0727 27.2758 45.2803C28.0426 44.4718 28.9729 43.9448 29.5407 43.7254L28.4593 40.9271ZM23 48.2395C23 49.3022 23.2407 50.2305 23.7279 50.9935C24.2168 51.7592 24.8899 52.2581 25.5881 52.5624C26.9239 53.1448 28.4056 53.0477 29.3388 52.8312L28.6612 49.9088C28.0944 50.0402 27.3261 50.0475 26.7869 49.8124C26.5476 49.708 26.377 49.5678 26.2565 49.379C26.1343 49.1877 26 48.8464 26 48.2395H23ZM29.1347 52.864C29.9134 52.7937 30.6276 52.3688 31.2184 51.7948C31.8255 51.2051 32.396 50.372 32.9013 49.2766C33.9102 47.0898 34.7354 43.6932 34.998 38.5769L32.002 38.4231C31.7503 43.3246 30.9684 46.3049 30.1772 48.0198C29.7826 48.8752 29.4049 49.374 29.128 49.643C28.8349 49.9278 28.7295 49.8883 28.8653 49.8761L29.1347 52.864ZM32.08 38.0166C31.2006 40.5997 30.423 41.2806 30.1742 41.4077C30.1124 41.4392 30.1453 41.4103 30.2095 41.4301C30.2359 41.4383 30.2094 41.4362 30.1664 41.3831L27.8336 43.2693C28.1656 43.68 28.6641 44.0924 29.3233 44.2963C30.0203 44.5118 30.7939 44.4596 31.5383 44.0796C32.902 43.3834 33.9994 41.6874 34.92 38.9834L32.08 38.0166ZM17.6857 44.5333C16.6446 44.7564 15.3113 44.8055 14.311 44.2911C13.4825 43.865 12.5 42.8509 12.5 40H9.5C9.5 43.6491 10.8508 45.885 12.939 46.9589C14.8554 47.9445 17.0221 47.7436 18.3143 47.4667L17.6857 44.5333ZM12.5 40C12.5 39.0346 12.7304 38.4719 13.0469 38.0306C13.4122 37.5215 13.9467 37.0873 14.7896 36.4389C16.4595 35.1543 18.7207 33.4596 20.3787 29.5909L17.6213 28.4091C16.2793 31.5404 14.5405 32.8457 12.9604 34.0611C12.1783 34.6627 11.2753 35.3535 10.6093 36.2819C9.89461 37.2781 9.5 38.4654 9.5 40H12.5Z" fill="black"/>
</svg>
