<svg width="51" height="51" viewBox="0 0 51 51" fill="none" xmlns="http://www.w3.org/2000/svg">
<path d="M23.1594 33.3506L18.5274 37.9826C17.5509 38.9591 15.9986 38.9591 14.997 38.0076C14.7216 37.7322 14.4462 37.4818 14.1708 37.2064C11.5919 34.6025 9.26332 31.8733 7.18516 29.019C5.13204 26.1646 3.47953 23.3103 2.2777 20.481C1.10091 17.6267 0.5 14.8975 0.5 12.2935C0.5 10.591 0.800456 8.96349 1.40137 7.4612C2.00228 5.93388 2.95373 4.53175 4.28075 3.27985C5.88318 1.70245 7.63585 0.92627 9.48866 0.92627C10.1897 0.92627 10.8908 1.0765 11.5167 1.37695C12.1677 1.67741 12.7436 2.1281 13.1943 2.77909L19.0031 10.9665C19.4538 11.5925 19.7793 12.1684 20.0046 12.7192C20.23 13.245 20.3552 13.7708 20.3552 14.2465C20.3552 14.8474 20.1799 15.4483 19.8294 16.0242C19.5039 16.6001 19.0282 17.201 18.4272 17.8019L16.5244 19.7799C16.2489 20.0553 16.1237 20.3808 16.1237 20.7815C16.1237 20.9818 16.1488 21.157 16.1989 21.3573C16.274 21.5576 16.3491 21.7079 16.3992 21.8581C16.8499 22.6843 17.626 23.761 18.7277 25.063C19.8544 26.3649 21.0562 27.692 22.3582 29.019C22.6086 29.2694 22.884 29.5197 23.1344 29.7701C24.1359 30.7466 24.161 32.349 23.1594 33.3506Z" fill="#292D32"/>
<path d="M50.5 41.811C50.5 42.5121 50.3748 43.2382 50.1244 43.9393C50.0493 44.1396 49.9742 44.3399 49.874 44.5402C49.4484 45.4415 48.8975 46.2928 48.1714 47.0941C46.9446 48.4461 45.5925 49.4226 44.0652 50.0486C44.0401 50.0486 44.0151 50.0736 43.9901 50.0736C42.5128 50.6745 40.9104 51 39.1828 51C36.6289 51 33.8997 50.3991 31.0204 49.1722C28.141 47.9454 25.2616 46.2928 22.4073 44.2147C21.4308 43.4886 20.4543 42.7625 19.5279 41.9863L27.7153 33.7989C28.4164 34.3247 29.0424 34.7253 29.5681 35.0007C29.6933 35.0508 29.8436 35.1259 30.0188 35.201C30.2191 35.2761 30.4194 35.3011 30.6448 35.3011C31.0704 35.3011 31.3959 35.1509 31.6713 34.8755L33.5742 32.9976C34.2002 32.3717 34.8011 31.896 35.377 31.5955C35.9529 31.245 36.5287 31.0697 37.1547 31.0697C37.6304 31.0697 38.1312 31.1699 38.682 31.3952C39.2328 31.6205 39.8087 31.946 40.4347 32.3717L48.7223 38.2556C49.3733 38.7063 49.8239 39.2321 50.0994 39.8581C50.3497 40.484 50.5 41.11 50.5 41.811Z" fill="#292D32"/>
</svg>
