<svg width="50" height="50" viewBox="0 0 50 50" fill="none" xmlns="http://www.w3.org/2000/svg">
<path d="M25 0.0286865C11.225 0.0286865 0 11.2408 0 25C0 38.7592 11.225 49.9713 25 49.9713C38.775 49.9713 50 38.7592 50 25C50 11.2408 38.775 0.0286865 25 0.0286865ZM35.875 33.9148C35.525 34.5141 34.9 34.8387 34.25 34.8387C33.925 34.8387 33.6 34.7638 33.3 34.564L25.55 29.9443C23.625 28.7957 22.2 26.2736 22.2 24.0511V13.8129C22.2 12.789 23.05 11.94 24.075 11.94C25.1 11.94 25.95 12.789 25.95 13.8129V24.0511C25.95 24.9501 26.7 26.2736 27.475 26.723L35.225 31.3427C36.125 31.8671 36.425 33.0158 35.875 33.9148Z" fill="#292D32"/>
</svg>
