<svg width="52" height="40" viewBox="0 0 52 40" fill="none" xmlns="http://www.w3.org/2000/svg">
<g id="&#240;&#159;&#166;&#134; icon &#34;ubereats&#34;">
<path id="Vector" d="M0 -0.00012207V11.0053C0 15.1567 2.8973 17.9026 6.65947 17.9026C8.49731 17.9026 10.1406 17.1891 11.3081 15.9567V17.5999H13.9244V-0.00012207H11.2865V10.854C11.2865 13.6431 9.40542 15.5242 6.96218 15.5242C4.49731 15.5242 2.63784 13.6864 2.63784 10.854V-0.00012207H0ZM15.8919 -0.00012207V17.5999H18.3784V15.9783C18.978 16.5912 19.6947 17.0773 20.4858 17.4079C21.2769 17.7385 22.1264 17.9067 22.9838 17.9026C23.8667 17.9083 24.7419 17.739 25.5589 17.4045C26.3759 17.0699 27.1185 16.5768 27.7437 15.9535C28.369 15.3302 28.8646 14.5892 29.2017 13.7733C29.5389 12.9574 29.711 12.0827 29.7082 11.1999C29.711 10.3171 29.5389 9.4424 29.2017 8.62648C28.8646 7.81056 28.369 7.06955 27.7437 6.44629C27.1185 5.82303 26.3759 5.32987 25.5589 4.99532C24.7419 4.66077 23.8667 4.49146 22.9838 4.49718C21.1892 4.49718 19.5892 5.23232 18.3784 6.39989V-0.00012207H15.8919ZM37.319 4.51881C33.5136 4.51881 30.7244 7.56746 30.7244 11.1783C30.7244 15.0053 33.6866 17.8378 37.5352 17.8378C39.8703 17.8378 41.7947 16.8432 43.0704 15.135L41.2325 13.7729C40.2812 15.0486 39.0271 15.6756 37.5352 15.6756C35.373 15.6756 33.6433 14.0972 33.2974 12.0215H43.719V11.1783C43.719 7.37287 41.0163 4.51881 37.319 4.51881ZM50.7028 4.67016C49.2974 4.67016 48.2812 5.31881 47.6541 6.35665V4.77827H45.1244V17.5999H47.6758V10.2702C47.6758 8.32422 48.8866 7.02692 50.5298 7.02692H51.5893V4.67016H50.7028ZM37.2541 6.72422C39.1568 6.72422 40.7352 8.04314 41.1676 10.0107H33.3406C33.7947 8.04314 35.373 6.72422 37.2541 6.72422ZM22.8109 6.76746C25.2109 6.76746 27.2001 8.71341 27.2001 11.1999C27.2001 13.6648 25.2109 15.6756 22.8109 15.6756C22.2243 15.6785 21.6431 15.5644 21.1011 15.34C20.5592 15.1156 20.0675 14.7853 19.6547 14.3686C19.242 13.9518 18.9165 13.4569 18.6974 12.9128C18.4782 12.3687 18.3698 11.7864 18.3784 11.1999C18.3784 8.71341 20.3676 6.76746 22.8109 6.76746ZM0 22.0756V39.6756H12.3676V36.6702H3.35136V32.3026H12.1298V29.3837H3.35136V25.081H12.3676V22.0756H0ZM31.4811 22.9837V26.681H28.973V29.6216H31.4811V36.5405C31.4811 38.2918 32.7136 39.6756 34.9406 39.6756H38.4866V36.7351H36.0217C35.2649 36.7351 34.7893 36.3891 34.7893 35.6972V29.6216H38.4866V26.681H34.7893V22.9837H31.4811ZM20.1514 26.3567C16.2811 26.3567 13.2325 29.3837 13.2325 33.1891C13.2325 36.9729 16.2811 40 20.1514 40C21.7081 40 23.1568 39.4594 24.3027 38.5081V39.6756H27.5892V26.681H24.3027V27.8486C23.1395 26.875 21.6683 26.3463 20.1514 26.3567ZM45.492 26.3567C42.0541 26.3567 39.6541 27.7621 39.6541 30.508C39.6541 32.3891 40.9731 33.6216 43.8271 34.227L46.9623 34.9621C48.1947 35.1999 48.519 35.5243 48.519 36.0432C48.519 36.8432 47.5677 37.3621 46.0758 37.3621C44.1947 37.3621 43.1136 36.9297 42.6812 35.5026H39.373C39.8487 38.2054 41.8595 40 45.9677 40C49.7298 40 51.892 38.2054 51.892 35.6972C51.892 33.9243 50.6379 32.6053 47.9785 32.0432L45.1893 31.4594C43.5677 31.1567 43.0487 30.8107 43.0487 30.2486C43.0487 29.4702 43.8271 28.9945 45.2758 28.9945C46.8325 28.9945 47.9785 29.427 48.3028 30.8107H51.5893C51.4163 28.1513 49.4487 26.3567 45.492 26.3567ZM20.4325 29.2107C22.6163 29.2107 24.3676 30.9621 24.3676 33.1891C24.3676 35.4162 22.6163 37.1459 20.4325 37.1459C19.9121 37.1488 19.3962 37.0484 18.9149 36.8505C18.4335 36.6527 17.9962 36.3614 17.6282 35.9934C17.2602 35.6254 16.9689 35.1881 16.7711 34.7067C16.5732 34.2254 16.4728 33.7095 16.4757 33.1891C16.4757 30.9621 18.2703 29.2107 20.4325 29.2107Z" fill="#131516"/>
</g>
</svg>
