<svg width="1440" height="845" viewBox="0 0 1440 845" fill="none" xmlns="http://www.w3.org/2000/svg">
<path d="M434 155C310.027 155 159.757 148.449 46 84.5C-408.5 -171 -524.194 214.577 -527 448.227L2078.09 423.218C1880.5 234.5 1837.38 208.873 1674 124.218C1510.62 39.5632 1032.09 103.863 914.5 124.218C796.912 144.573 593.5 155 434 155Z" fill="#FFFBEC"/>
<path d="M1121.6 689.878C1245.58 689.878 1395.85 696.429 1509.6 760.378C1964.1 1015.88 2079.8 630.301 2082.6 396.651L-522.483 421.66C-324.895 610.378 -281.773 636.005 -118.395 720.66C44.9829 805.315 523.517 741.015 641.105 720.66C758.693 700.305 962.105 689.878 1121.6 689.878Z" fill="#FFFBEC"/>
</svg>
