<svg width="36" height="47" viewBox="0 0 36 47" fill="none" xmlns="http://www.w3.org/2000/svg">
<g id="&#240;&#159;&#166;&#134; icon &#34;yelp&#34;">
<path id="Vector" d="M35.9901 35.693C35.7117 37.5906 31.8061 42.5136 30.0093 43.2264C29.3953 43.4693 28.8029 43.4105 28.331 43.0502C28.0269 42.8152 27.711 42.3354 23.4994 35.5559L22.2495 33.535C21.7678 32.8104 21.8566 31.8568 22.4549 31.1283C23.0413 30.4253 23.9002 30.1609 24.6486 30.4429C24.688 30.4664 27.7999 31.4827 27.7999 31.4827C34.8844 33.7915 35.1154 33.8796 35.4155 34.1029C35.8637 34.4671 36.0711 35.0331 35.9783 35.695L35.9901 35.693ZM21.7914 25.3788C21.2899 24.6229 21.2978 23.7319 21.8151 23.117L23.7857 20.4558C28.1079 14.6123 28.3488 14.3049 28.641 14.1012C29.1465 13.7663 29.7665 13.7507 30.3608 14.0385C32.0766 14.8649 35.5399 19.9701 35.7492 21.9284V21.995C35.8065 22.6627 35.5419 23.2052 35.066 23.5302C34.7422 23.7359 34.446 23.8553 26.392 25.794C25.1185 26.1151 24.4096 26.2914 23.993 26.4383L24.0503 26.3795C23.2526 26.6145 22.3641 26.2346 21.8606 25.4415L21.7914 25.3788ZM16.8473 22.3514C16.4623 22.4708 15.2894 22.8311 13.848 20.5145C13.848 20.5145 4.11173 5.32037 3.88269 4.85234C3.74448 4.32361 3.91231 3.7283 4.38619 3.24657C5.83548 1.75633 13.6999 -0.425169 15.7593 0.0722296C16.4307 0.244557 16.8927 0.661666 17.0546 1.25502C17.1731 1.91104 18.1307 16.0125 18.2689 19.1712C18.3992 21.8736 17.2323 22.2358 16.8473 22.3514ZM18.1327 37.8079C18.111 45.1984 18.0952 45.4451 17.9728 45.7957C17.7654 46.3459 17.2896 46.7141 16.6281 46.8335C14.7326 47.1547 8.79526 44.981 7.55724 43.5241C7.33322 43.2456 7.18988 42.9118 7.1426 42.5587C7.11101 42.3237 7.1426 42.0887 7.23145 41.8811C7.37954 41.4992 7.58686 41.2055 12.918 35.0076L14.4858 33.159C15.0209 32.4834 15.9667 32.2778 16.8532 32.6283C17.7141 32.9514 18.2472 33.6858 18.188 34.4789V37.7688L18.1327 37.8079ZM1.97532 33.0807C1.39284 33.0611 0.869598 32.7145 0.56355 32.1407C0.34438 31.7197 0.190369 31.0245 0.0936184 30.1785C-0.176889 27.6308 0.150879 23.7868 0.920935 22.5668C1.28227 22.0087 1.80946 21.713 2.39194 21.7326C2.77697 21.7326 3.12053 21.852 10.7421 24.9637L12.9733 25.8429C13.771 26.1367 14.2646 26.9592 14.2172 27.9011C14.158 28.8117 13.6288 29.5147 12.8469 29.7223L9.67786 30.721C2.58939 32.9828 2.35443 33.0415 1.98124 33.0121L1.97532 33.0807ZM31.5475 46.9941H31.5396L31.5297 47L31.5475 46.9941Z" fill="#131516"/>
</g>
</svg>
